<svg id="visual" viewBox="0 0 450 900" width="450" height="900" xmlns="http://www.w3.org/2000/svg" xmlns:xlink="http://www.w3.org/1999/xlink" version="1.1"><g fill="none" stroke="#ff002b" stroke-width="1"><circle r="10" cx="30" cy="643"></circle><circle r="3" cx="309" cy="682"></circle><circle r="2" cx="308" cy="29"></circle><circle r="8" cx="299" cy="381"></circle><circle r="2" cx="148" cy="704"></circle><circle r="2" cx="432" cy="731"></circle><circle r="8" cx="400" cy="494"></circle><circle r="4" cx="46" cy="760"></circle><circle r="7" cx="229" cy="601"></circle><circle r="7" cx="145" cy="362"></circle><circle r="4" cx="11" cy="16"></circle><circle r="4" cx="99" cy="134"></circle><circle r="2" cx="269" cy="392"></circle><circle r="3" cx="160" cy="221"></circle><circle r="6" cx="115" cy="654"></circle><circle r="5" cx="436" cy="356"></circle><circle r="5" cx="254" cy="882"></circle><circle r="2" cx="275" cy="277"></circle><circle r="6" cx="26" cy="95"></circle><circle r="4" cx="284" cy="84"></circle><circle r="5" cx="344" cy="217"></circle><circle r="5" cx="77" cy="725"></circle><circle r="3" cx="401" cy="690"></circle><circle r="2" cx="50" cy="705"></circle><circle r="3" cx="101" cy="468"></circle><circle r="5" cx="297" cy="846"></circle><circle r="3" cx="216" cy="109"></circle><circle r="7" cx="103" cy="830"></circle><circle r="2" cx="27" cy="743"></circle><circle r="4" cx="257" cy="46"></circle><circle r="2" cx="417" cy="294"></circle><circle r="6" cx="115" cy="287"></circle><circle r="8" cx="374" cy="368"></circle><circle r="4" cx="169" cy="740"></circle><circle r="6" cx="285" cy="228"></circle><circle r="6" cx="253" cy="152"></circle><circle r="2" cx="367" cy="563"></circle><circle r="2" cx="425" cy="795"></circle><circle r="5" cx="145" cy="808"></circle><circle r="2" cx="403" cy="598"></circle><circle r="7" cx="24" cy="396"></circle><circle r="7" cx="362" cy="866"></circle><circle r="6" cx="301" cy="422"></circle><circle r="2" cx="211" cy="634"></circle><circle r="3" cx="177" cy="686"></circle><circle r="2" cx="369" cy="825"></circle><circle r="6" cx="313" cy="81"></circle><circle r="6" cx="421" cy="543"></circle><circle r="3" cx="230" cy="274"></circle><circle r="7" cx="216" cy="367"></circle><circle r="5" cx="40" cy="683"></circle><circle r="3" cx="245" cy="14"></circle><circle r="8" cx="343" cy="503"></circle><circle r="7" cx="439" cy="852"></circle><circle r="8" cx="439" cy="430"></circle><circle r="4" cx="332" cy="423"></circle><circle r="5" cx="412" cy="886"></circle><circle r="2" cx="54" cy="499"></circle><circle r="5" cx="382" cy="726"></circle><circle r="8" cx="32" cy="151"></circle><circle r="4" cx="192" cy="482"></circle><circle r="8" cx="6" cy="203"></circle><circle r="8" cx="403" cy="12"></circle><circle r="8" cx="73" cy="484"></circle><circle r="2" cx="145" cy="431"></circle><circle r="2" cx="121" cy="598"></circle><circle r="4" cx="309" cy="487"></circle><circle r="4" cx="269" cy="118"></circle><circle r="7" cx="321" cy="805"></circle><circle r="4" cx="125" cy="140"></circle><circle r="8" cx="71" cy="153"></circle><circle r="5" cx="318" cy="641"></circle><circle r="5" cx="423" cy="683"></circle><circle r="7" cx="375" cy="768"></circle><circle r="4" cx="195" cy="759"></circle><circle r="7" cx="152" cy="840"></circle><circle r="8" cx="170" cy="634"></circle><circle r="7" cx="115" cy="561"></circle><circle r="6" cx="260" cy="787"></circle><circle r="2" cx="151" cy="70"></circle><circle r="4" cx="5" cy="602"></circle><circle r="8" cx="292" cy="155"></circle><circle r="5" cx="233" cy="710"></circle><circle r="5" cx="183" cy="283"></circle><circle r="7" cx="209" cy="658"></circle><circle r="2" cx="341" cy="278"></circle><circle r="5" cx="133" cy="205"></circle><circle r="4" cx="275" cy="178"></circle><circle r="2" cx="67" cy="559"></circle><circle r="3" cx="96" cy="302"></circle><circle r="3" cx="412" cy="346"></circle><circle r="6" cx="331" cy="479"></circle><circle r="8" cx="299" cy="519"></circle><circle r="3" cx="290" cy="814"></circle><circle r="4" cx="381" cy="647"></circle><circle r="4" cx="48" cy="419"></circle><circle r="7" cx="150" cy="574"></circle><circle r="3" cx="39" cy="244"></circle><circle r="6" cx="76" cy="613"></circle><circle r="4" cx="336" cy="249"></circle><circle r="7" cx="204" cy="133"></circle><circle r="7" cx="162" cy="553"></circle><circle r="4" cx="277" cy="707"></circle><circle r="4" cx="125" cy="880"></circle></g></svg>