<svg id="visual" viewBox="0 0 450 900" width="450" height="900" xmlns="http://www.w3.org/2000/svg" xmlns:xlink="http://www.w3.org/1999/xlink" version="1.1"><g fill="none" stroke="#ff002b" stroke-width="1"><circle r="10" cx="244" cy="667"></circle><circle r="3" cx="26" cy="364"></circle><circle r="2" cx="57" cy="807"></circle><circle r="3" cx="430" cy="362"></circle><circle r="4" cx="47" cy="118"></circle><circle r="2" cx="188" cy="490"></circle><circle r="7" cx="315" cy="319"></circle><circle r="7" cx="324" cy="518"></circle><circle r="7" cx="352" cy="39"></circle><circle r="6" cx="416" cy="583"></circle><circle r="5" cx="310" cy="764"></circle><circle r="4" cx="349" cy="154"></circle><circle r="7" cx="258" cy="97"></circle><circle r="8" cx="118" cy="556"></circle><circle r="7" cx="399" cy="547"></circle><circle r="7" cx="113" cy="301"></circle><circle r="4" cx="435" cy="404"></circle><circle r="7" cx="379" cy="711"></circle><circle r="5" cx="285" cy="732"></circle><circle r="8" cx="95" cy="448"></circle><circle r="6" cx="300" cy="97"></circle><circle r="3" cx="24" cy="118"></circle><circle r="2" cx="175" cy="577"></circle><circle r="6" cx="263" cy="554"></circle><circle r="7" cx="348" cy="284"></circle><circle r="2" cx="186" cy="352"></circle><circle r="2" cx="126" cy="768"></circle><circle r="3" cx="333" cy="716"></circle><circle r="4" cx="242" cy="223"></circle><circle r="4" cx="280" cy="121"></circle><circle r="5" cx="24" cy="771"></circle><circle r="7" cx="229" cy="816"></circle><circle r="3" cx="21" cy="441"></circle><circle r="5" cx="122" cy="204"></circle><circle r="7" cx="371" cy="469"></circle><circle r="8" cx="327" cy="187"></circle><circle r="8" cx="43" cy="240"></circle><circle r="4" cx="92" cy="193"></circle><circle r="3" cx="50" cy="377"></circle><circle r="2" cx="367" cy="749"></circle><circle r="8" cx="123" cy="658"></circle><circle r="7" cx="114" cy="526"></circle><circle r="8" cx="11" cy="809"></circle><circle r="7" cx="36" cy="653"></circle><circle r="5" cx="372" cy="549"></circle><circle r="8" cx="341" cy="208"></circle><circle r="8" cx="179" cy="552"></circle><circle r="3" cx="28" cy="836"></circle><circle r="5" cx="92" cy="67"></circle><circle r="3" cx="232" cy="643"></circle><circle r="3" cx="115" cy="332"></circle><circle r="7" cx="1" cy="91"></circle><circle r="8" cx="105" cy="802"></circle><circle r="2" cx="217" cy="553"></circle><circle r="3" cx="319" cy="887"></circle><circle r="6" cx="49" cy="687"></circle><circle r="7" cx="322" cy="405"></circle><circle r="2" cx="108" cy="691"></circle><circle r="5" cx="138" cy="296"></circle><circle r="7" cx="445" cy="272"></circle><circle r="7" cx="244" cy="359"></circle><circle r="3" cx="147" cy="41"></circle><circle r="3" cx="446" cy="47"></circle><circle r="6" cx="289" cy="621"></circle><circle r="4" cx="303" cy="70"></circle><circle r="5" cx="89" cy="537"></circle><circle r="7" cx="230" cy="333"></circle><circle r="5" cx="389" cy="897"></circle><circle r="3" cx="34" cy="276"></circle><circle r="5" cx="185" cy="29"></circle><circle r="3" cx="162" cy="200"></circle><circle r="3" cx="376" cy="581"></circle><circle r="5" cx="28" cy="307"></circle><circle r="3" cx="437" cy="693"></circle><circle r="7" cx="125" cy="719"></circle><circle r="5" cx="335" cy="837"></circle><circle r="7" cx="266" cy="224"></circle><circle r="5" cx="399" cy="163"></circle><circle r="8" cx="223" cy="686"></circle><circle r="4" cx="108" cy="99"></circle><circle r="7" cx="170" cy="817"></circle><circle r="6" cx="179" cy="445"></circle><circle r="2" cx="278" cy="65"></circle><circle r="5" cx="181" cy="115"></circle><circle r="3" cx="135" cy="121"></circle><circle r="3" cx="128" cy="78"></circle><circle r="6" cx="189" cy="174"></circle><circle r="3" cx="439" cy="604"></circle><circle r="3" cx="388" cy="379"></circle><circle r="2" cx="2" cy="565"></circle><circle r="8" cx="438" cy="749"></circle><circle r="7" cx="376" cy="404"></circle><circle r="8" cx="147" cy="479"></circle><circle r="5" cx="391" cy="665"></circle><circle r="7" cx="190" cy="630"></circle><circle r="7" cx="34" cy="175"></circle><circle r="3" cx="11" cy="393"></circle><circle r="5" cx="212" cy="17"></circle><circle r="8" cx="211" cy="296"></circle><circle r="3" cx="414" cy="669"></circle><circle r="8" cx="400" cy="777"></circle><circle r="5" cx="372" cy="132"></circle><circle r="4" cx="279" cy="401"></circle><circle r="4" cx="92" cy="621"></circle></g></svg>