<svg id="visual" viewBox="0 0 900 900" width="900" height="900" xmlns="http://www.w3.org/2000/svg" xmlns:xlink="http://www.w3.org/1999/xlink" version="1.1"><g><g transform="translate(560 670)"><path d="M0 -17.2L7.5 -15.5L13.5 -10.7L16.8 -3.8L16.8 3.8L13.5 10.7L7.5 15.5L0 17.2L-7.5 15.5L-13.5 10.7L-16.8 3.8L-16.8 -3.8L-13.5 -10.7L-7.5 -15.5Z" fill="none" stroke="#ff0000" stroke-width="2"></path></g><g transform="translate(610 173)"><path d="M0 -14L6.1 -12.6L10.9 -8.7L13.6 -3.1L13.6 3.1L10.9 8.7L6.1 12.6L0 14L-6.1 12.6L-10.9 8.7L-13.6 3.1L-13.6 -3.1L-10.9 -8.7L-6.1 -12.6Z" fill="none" stroke="#ff0000" stroke-width="2"></path></g><g transform="translate(341 419)"><path d="M0 -16L6.9 -14.4L12.5 -10L15.6 -3.6L15.6 3.6L12.5 10L6.9 14.4L0 16L-6.9 14.4L-12.5 10L-15.6 3.6L-15.6 -3.6L-12.5 -10L-6.9 -14.4Z" fill="none" stroke="#ff0000" stroke-width="2"></path></g><g transform="translate(754 475)"><path d="M0 -16L6.9 -14.4L12.5 -10L15.6 -3.6L15.6 3.6L12.5 10L6.9 14.4L0 16L-6.9 14.4L-12.5 10L-15.6 3.6L-15.6 -3.6L-12.5 -10L-6.9 -14.4Z" stroke="#ff0000" fill="none" stroke-width="2"></path></g><g transform="translate(666 634)"><path d="M0 -13L5.6 -11.7L10.2 -8.1L12.7 -2.9L12.7 2.9L10.2 8.1L5.6 11.7L0 13L-5.6 11.7L-10.2 8.1L-12.7 2.9L-12.7 -2.9L-10.2 -8.1L-5.6 -11.7Z" stroke="#ff0000" fill="none" stroke-width="2"></path></g><g transform="translate(269 710)"><path d="M0 -10L4.3 -9L7.8 -6.2L9.7 -2.2L9.7 2.2L7.8 6.2L4.3 9L0 10L-4.3 9L-7.8 6.2L-9.7 2.2L-9.7 -2.2L-7.8 -6.2L-4.3 -9Z" stroke="#ff0000" fill="none" stroke-width="2"></path></g><g transform="translate(849 311)"><path d="M0 -12L5.2 -10.8L9.4 -7.5L11.7 -2.7L11.7 2.7L9.4 7.5L5.2 10.8L0 12L-5.2 10.8L-9.4 7.5L-11.7 2.7L-11.7 -2.7L-9.4 -7.5L-5.2 -10.8Z" stroke="#ff0000" fill="none" stroke-width="2"></path></g><g transform="translate(310 378)"><path d="M0 -16L6.9 -14.4L12.5 -10L15.6 -3.6L15.6 3.6L12.5 10L6.9 14.4L0 16L-6.9 14.4L-12.5 10L-15.6 3.6L-15.6 -3.6L-12.5 -10L-6.9 -14.4Z" stroke="#ff0000" fill="none" stroke-width="2"></path></g><g transform="translate(807 802)"><path d="M0 -15L6.5 -13.5L11.7 -9.4L14.6 -3.3L14.6 3.3L11.7 9.4L6.5 13.5L0 15L-6.5 13.5L-11.7 9.4L-14.6 3.3L-14.6 -3.3L-11.7 -9.4L-6.5 -13.5Z" stroke="#ff0000" fill="none" stroke-width="2"></path></g><g transform="translate(560 269)"><path d="M0 -15L6.5 -13.5L11.7 -9.4L14.6 -3.3L14.6 3.3L11.7 9.4L6.5 13.5L0 15L-6.5 13.5L-11.7 9.4L-14.6 3.3L-14.6 -3.3L-11.7 -9.4L-6.5 -13.5Z" stroke="#ff0000" fill="none" stroke-width="2"></path></g><g transform="translate(635 90)"><path d="M0 -14L6.1 -12.6L10.9 -8.7L13.6 -3.1L13.6 3.1L10.9 8.7L6.1 12.6L0 14L-6.1 12.6L-10.9 8.7L-13.6 3.1L-13.6 -3.1L-10.9 -8.7L-6.1 -12.6Z" stroke="#ff0000" fill="none" stroke-width="2"></path></g><g transform="translate(241 870)"><path d="M0 -12L5.2 -10.8L9.4 -7.5L11.7 -2.7L11.7 2.7L9.4 7.5L5.2 10.8L0 12L-5.2 10.8L-9.4 7.5L-11.7 2.7L-11.7 -2.7L-9.4 -7.5L-5.2 -10.8Z" stroke="#ff0000" fill="none" stroke-width="2"></path></g><g transform="translate(135 758)"><path d="M0 -12L5.2 -10.8L9.4 -7.5L11.7 -2.7L11.7 2.7L9.4 7.5L5.2 10.8L0 12L-5.2 10.8L-9.4 7.5L-11.7 2.7L-11.7 -2.7L-9.4 -7.5L-5.2 -10.8Z" stroke="#ff0000" fill="none" stroke-width="2"></path></g><g transform="translate(561 819)"><path d="M0 -15L6.5 -13.5L11.7 -9.4L14.6 -3.3L14.6 3.3L11.7 9.4L6.5 13.5L0 15L-6.5 13.5L-11.7 9.4L-14.6 3.3L-14.6 -3.3L-11.7 -9.4L-6.5 -13.5Z" stroke="#ff0000" fill="none" stroke-width="2"></path></g><g transform="translate(372 68)"><path d="M0 -12L5.2 -10.8L9.4 -7.5L11.7 -2.7L11.7 2.7L9.4 7.5L5.2 10.8L0 12L-5.2 10.8L-9.4 7.5L-11.7 2.7L-11.7 -2.7L-9.4 -7.5L-5.2 -10.8Z" stroke="#ff0000" fill="none" stroke-width="2"></path></g><g transform="translate(79 528)"><path d="M0 -9L3.9 -8.1L7 -5.6L8.8 -2L8.8 2L7 5.6L3.9 8.1L0 9L-3.9 8.1L-7 5.6L-8.8 2L-8.8 -2L-7 -5.6L-3.9 -8.1Z" stroke="#ff0000" fill="none" stroke-width="2"></path></g><g transform="translate(568 599)"><path d="M0 -9L3.9 -8.1L7 -5.6L8.8 -2L8.8 2L7 5.6L3.9 8.1L0 9L-3.9 8.1L-7 5.6L-8.8 2L-8.8 -2L-7 -5.6L-3.9 -8.1Z" stroke="#ff0000" fill="none" stroke-width="2"></path></g><g transform="translate(582 524)"><path d="M0 -12L5.2 -10.8L9.4 -7.5L11.7 -2.7L11.7 2.7L9.4 7.5L5.2 10.8L0 12L-5.2 10.8L-9.4 7.5L-11.7 2.7L-11.7 -2.7L-9.4 -7.5L-5.2 -10.8Z" stroke="#ff0000" fill="none" stroke-width="2"></path></g><g transform="translate(250 411)"><path d="M0 -15L6.5 -13.5L11.7 -9.4L14.6 -3.3L14.6 3.3L11.7 9.4L6.5 13.5L0 15L-6.5 13.5L-11.7 9.4L-14.6 3.3L-14.6 -3.3L-11.7 -9.4L-6.5 -13.5Z" stroke="#ff0000" fill="none" stroke-width="2"></path></g><g transform="translate(859 275)"><path d="M0 -9L3.9 -8.1L7 -5.6L8.8 -2L8.8 2L7 5.6L3.9 8.1L0 9L-3.9 8.1L-7 5.6L-8.8 2L-8.8 -2L-7 -5.6L-3.9 -8.1Z" stroke="#ff0000" fill="none" stroke-width="2"></path></g><g transform="translate(127 83)"><path d="M0 -16L6.9 -14.4L12.5 -10L15.6 -3.6L15.6 3.6L12.5 10L6.9 14.4L0 16L-6.9 14.4L-12.5 10L-15.6 3.6L-15.6 -3.6L-12.5 -10L-6.9 -14.4Z" stroke="#ff0000" fill="none" stroke-width="2"></path></g><g transform="translate(666 51)"><path d="M0 -11L4.8 -9.9L8.6 -6.9L10.7 -2.4L10.7 2.4L8.6 6.9L4.8 9.9L0 11L-4.8 9.9L-8.6 6.9L-10.7 2.4L-10.7 -2.4L-8.6 -6.9L-4.8 -9.9Z" stroke="#ff0000" fill="none" stroke-width="2"></path></g><g transform="translate(215 774)"><path d="M0 -11L4.8 -9.9L8.6 -6.9L10.7 -2.4L10.7 2.4L8.6 6.9L4.8 9.9L0 11L-4.8 9.9L-8.6 6.9L-10.7 2.4L-10.7 -2.4L-8.6 -6.9L-4.8 -9.9Z" stroke="#ff0000" fill="none" stroke-width="2"></path></g><g transform="translate(433 699)"><path d="M0 -8L3.5 -7.2L6.3 -5L7.8 -1.8L7.8 1.8L6.3 5L3.5 7.2L0 8L-3.5 7.2L-6.3 5L-7.8 1.8L-7.8 -1.8L-6.3 -5L-3.5 -7.2Z" stroke="#ff0000" fill="none" stroke-width="2"></path></g></g></svg>