<svg id="visual" viewBox="0 0 450 900" width="450" height="900" xmlns="http://www.w3.org/2000/svg" xmlns:xlink="http://www.w3.org/1999/xlink" version="1.1"><g><g transform="translate(76 346)"><path d="M0 -11.4L4.9 -10.2L8.9 -7.1L11.1 -2.5L11.1 2.5L8.9 7.1L4.9 10.2L0 11.4L-4.9 10.2L-8.9 7.1L-11.1 2.5L-11.1 -2.5L-8.9 -7.1L-4.9 -10.2Z" fill="none" stroke="#ff0000" stroke-width="2"></path></g><g transform="translate(319 690)"><path d="M0 -7L3 -6.3L5.5 -4.4L6.8 -1.6L6.8 1.6L5.5 4.4L3 6.3L0 7L-3 6.3L-5.5 4.4L-6.8 1.6L-6.8 -1.6L-5.5 -4.4L-3 -6.3Z" fill="none" stroke="#ff0000" stroke-width="2"></path></g><g transform="translate(327 207)"><path d="M0 -5L2.2 -4.5L3.9 -3.1L4.9 -1.1L4.9 1.1L3.9 3.1L2.2 4.5L0 5L-2.2 4.5L-3.9 3.1L-4.9 1.1L-4.9 -1.1L-3.9 -3.1L-2.2 -4.5Z" fill="none" stroke="#ff0000" stroke-width="2"></path></g><g transform="translate(367 879)"><path d="M0 -5L2.2 -4.5L3.9 -3.1L4.9 -1.1L4.9 1.1L3.9 3.1L2.2 4.5L0 5L-2.2 4.5L-3.9 3.1L-4.9 1.1L-4.9 -1.1L-3.9 -3.1L-2.2 -4.5Z" stroke="#ff0000" fill="none" stroke-width="2"></path></g><g transform="translate(415 820)"><path d="M0 -5L2.2 -4.5L3.9 -3.1L4.9 -1.1L4.9 1.1L3.9 3.1L2.2 4.5L0 5L-2.2 4.5L-3.9 3.1L-4.9 1.1L-4.9 -1.1L-3.9 -3.1L-2.2 -4.5Z" stroke="#ff0000" fill="none" stroke-width="2"></path></g><g transform="translate(118 17)"><path d="M0 -6L2.6 -5.4L4.7 -3.7L5.8 -1.3L5.8 1.3L4.7 3.7L2.6 5.4L0 6L-2.6 5.4L-4.7 3.7L-5.8 1.3L-5.8 -1.3L-4.7 -3.7L-2.6 -5.4Z" stroke="#ff0000" fill="none" stroke-width="2"></path></g><g transform="translate(390 559)"><path d="M0 -7L3 -6.3L5.5 -4.4L6.8 -1.6L6.8 1.6L5.5 4.4L3 6.3L0 7L-3 6.3L-5.5 4.4L-6.8 1.6L-6.8 -1.6L-5.5 -4.4L-3 -6.3Z" stroke="#ff0000" fill="none" stroke-width="2"></path></g><g transform="translate(283 563)"><path d="M0 -6L2.6 -5.4L4.7 -3.7L5.8 -1.3L5.8 1.3L4.7 3.7L2.6 5.4L0 6L-2.6 5.4L-4.7 3.7L-5.8 1.3L-5.8 -1.3L-4.7 -3.7L-2.6 -5.4Z" stroke="#ff0000" fill="none" stroke-width="2"></path></g><g transform="translate(62 213)"><path d="M0 -7L3 -6.3L5.5 -4.4L6.8 -1.6L6.8 1.6L5.5 4.4L3 6.3L0 7L-3 6.3L-5.5 4.4L-6.8 1.6L-6.8 -1.6L-5.5 -4.4L-3 -6.3Z" stroke="#ff0000" fill="none" stroke-width="2"></path></g><g transform="translate(194 768)"><path d="M0 -8L3.5 -7.2L6.3 -5L7.8 -1.8L7.8 1.8L6.3 5L3.5 7.2L0 8L-3.5 7.2L-6.3 5L-7.8 1.8L-7.8 -1.8L-6.3 -5L-3.5 -7.2Z" stroke="#ff0000" fill="none" stroke-width="2"></path></g><g transform="translate(447 591)"><path d="M0 -5L2.2 -4.5L3.9 -3.1L4.9 -1.1L4.9 1.1L3.9 3.1L2.2 4.5L0 5L-2.2 4.5L-3.9 3.1L-4.9 1.1L-4.9 -1.1L-3.9 -3.1L-2.2 -4.5Z" stroke="#ff0000" fill="none" stroke-width="2"></path></g><g transform="translate(87 119)"><path d="M0 -9L3.9 -8.1L7 -5.6L8.8 -2L8.8 2L7 5.6L3.9 8.1L0 9L-3.9 8.1L-7 5.6L-8.8 2L-8.8 -2L-7 -5.6L-3.9 -8.1Z" stroke="#ff0000" fill="none" stroke-width="2"></path></g><g transform="translate(323 168)"><path d="M0 -6L2.6 -5.4L4.7 -3.7L5.8 -1.3L5.8 1.3L4.7 3.7L2.6 5.4L0 6L-2.6 5.4L-4.7 3.7L-5.8 1.3L-5.8 -1.3L-4.7 -3.7L-2.6 -5.4Z" stroke="#ff0000" fill="none" stroke-width="2"></path></g><g transform="translate(6 687)"><path d="M0 -8L3.5 -7.2L6.3 -5L7.8 -1.8L7.8 1.8L6.3 5L3.5 7.2L0 8L-3.5 7.2L-6.3 5L-7.8 1.8L-7.8 -1.8L-6.3 -5L-3.5 -7.2Z" stroke="#ff0000" fill="none" stroke-width="2"></path></g><g transform="translate(11 720)"><path d="M0 -6L2.6 -5.4L4.7 -3.7L5.8 -1.3L5.8 1.3L4.7 3.7L2.6 5.4L0 6L-2.6 5.4L-4.7 3.7L-5.8 1.3L-5.8 -1.3L-4.7 -3.7L-2.6 -5.4Z" stroke="#ff0000" fill="none" stroke-width="2"></path></g><g transform="translate(189 552)"><path d="M0 -5L2.2 -4.5L3.9 -3.1L4.9 -1.1L4.9 1.1L3.9 3.1L2.2 4.5L0 5L-2.2 4.5L-3.9 3.1L-4.9 1.1L-4.9 -1.1L-3.9 -3.1L-2.2 -4.5Z" stroke="#ff0000" fill="none" stroke-width="2"></path></g><g transform="translate(51 657)"><path d="M0 -7L3 -6.3L5.5 -4.4L6.8 -1.6L6.8 1.6L5.5 4.4L3 6.3L0 7L-3 6.3L-5.5 4.4L-6.8 1.6L-6.8 -1.6L-5.5 -4.4L-3 -6.3Z" stroke="#ff0000" fill="none" stroke-width="2"></path></g><g transform="translate(164 628)"><path d="M0 -6L2.6 -5.4L4.7 -3.7L5.8 -1.3L5.8 1.3L4.7 3.7L2.6 5.4L0 6L-2.6 5.4L-4.7 3.7L-5.8 1.3L-5.8 -1.3L-4.7 -3.7L-2.6 -5.4Z" stroke="#ff0000" fill="none" stroke-width="2"></path></g><g transform="translate(111 94)"><path d="M0 -8L3.5 -7.2L6.3 -5L7.8 -1.8L7.8 1.8L6.3 5L3.5 7.2L0 8L-3.5 7.2L-6.3 5L-7.8 1.8L-7.8 -1.8L-6.3 -5L-3.5 -7.2Z" stroke="#ff0000" fill="none" stroke-width="2"></path></g><g transform="translate(383 663)"><path d="M0 -10L4.3 -9L7.8 -6.2L9.7 -2.2L9.7 2.2L7.8 6.2L4.3 9L0 10L-4.3 9L-7.8 6.2L-9.7 2.2L-9.7 -2.2L-7.8 -6.2L-4.3 -9Z" stroke="#ff0000" fill="none" stroke-width="2"></path></g><g transform="translate(148 561)"><path d="M0 -5L2.2 -4.5L3.9 -3.1L4.9 -1.1L4.9 1.1L3.9 3.1L2.2 4.5L0 5L-2.2 4.5L-3.9 3.1L-4.9 1.1L-4.9 -1.1L-3.9 -3.1L-2.2 -4.5Z" stroke="#ff0000" fill="none" stroke-width="2"></path></g><g transform="translate(244 101)"><path d="M0 -9L3.9 -8.1L7 -5.6L8.8 -2L8.8 2L7 5.6L3.9 8.1L0 9L-3.9 8.1L-7 5.6L-8.8 2L-8.8 -2L-7 -5.6L-3.9 -8.1Z" stroke="#ff0000" fill="none" stroke-width="2"></path></g><g transform="translate(268 493)"><path d="M0 -5L2.2 -4.5L3.9 -3.1L4.9 -1.1L4.9 1.1L3.9 3.1L2.2 4.5L0 5L-2.2 4.5L-3.9 3.1L-4.9 1.1L-4.9 -1.1L-3.9 -3.1L-2.2 -4.5Z" stroke="#ff0000" fill="none" stroke-width="2"></path></g><g transform="translate(431 615)"><path d="M0 -9L3.9 -8.1L7 -5.6L8.8 -2L8.8 2L7 5.6L3.9 8.1L0 9L-3.9 8.1L-7 5.6L-8.8 2L-8.8 -2L-7 -5.6L-3.9 -8.1Z" stroke="#ff0000" fill="none" stroke-width="2"></path></g></g></svg>